<svg xmlns="http://www.w3.org/2000/svg" xmlns:xlink="http://www.w3.org/1999/xlink" width="1775" zoomAndPan="magnify" viewBox="0 0 1331.25 290.250005" height="387" preserveAspectRatio="xMidYMid meet" version="1.0"><defs><g/><clipPath id="141a539d62"><path d="M 1.484375 43.679688 L 333.625 43.679688 L 333.625 262.863281 L 1.484375 262.863281 Z M 1.484375 43.679688 " clip-rule="nonzero"/></clipPath><clipPath id="7874aa6c49"><path d="M 0.484375 0.679688 L 332.484375 0.679688 L 332.484375 219.636719 L 0.484375 219.636719 Z M 0.484375 0.679688 " clip-rule="nonzero"/></clipPath><clipPath id="44ff9758d9"><rect x="0" width="333" y="0" height="220"/></clipPath><clipPath id="60cbe5dcd9"><path d="M 140 17.105469 L 309.804688 17.105469 L 309.804688 289.402344 L 140 289.402344 Z M 140 17.105469 " clip-rule="nonzero"/></clipPath></defs><g clip-path="url(#141a539d62)"><g transform="matrix(1, 0, 0, 1, 1, 43)"><g clip-path="url(#44ff9758d9)"><g clip-path="url(#7874aa6c49)"><path fill="#b4b4b4" d="M 222.527344 219.636719 C 283.296875 219.636719 332.566406 170.371094 332.566406 109.597656 C 332.566406 47.898438 284.839844 8.464844 226.46875 1.789062 C 162.679688 -5.503906 103.125 23.890625 60.039062 69.625 C 42.28125 88.476562 27.078125 109.777344 14.492188 132.394531 C 10.207031 140.085938 6.574219 155.105469 0.417969 161.261719 C 77.796875 83.886719 141.640625 219.636719 222.527344 219.636719 " fill-opacity="1" fill-rule="nonzero"/></g></g></g></g><g clip-path="url(#60cbe5dcd9)"><path fill="#f4efe9" d="M 205.023438 17.0625 L 309.222656 17.0625 L 224.902344 139.570312 L 309.222656 142.738281 L 185.132812 289.105469 L 203.425781 176.160156 L 140.582031 180.921875 L 205.023438 17.0625 " fill-opacity="1" fill-rule="nonzero"/></g><g fill="#ffffff" fill-opacity="1"><g transform="translate(363.986712, 173.058201)"><g><path d="M 1.765625 0 L 11.578125 -101.421875 L 45.9375 -101.421875 L 55.609375 0 L 36.375 0 L 34.953125 -16.40625 L 22.671875 -16.40625 L 21.484375 0 Z M 24.203125 -32.59375 L 33.421875 -32.59375 L 28.921875 -84.1875 L 27.984375 -84.1875 Z M 24.203125 -32.59375 "/></g></g></g><g fill="#ffffff" fill-opacity="1"><g transform="translate(420.658323, 173.058201)"><g><path d="M 21.96875 0.9375 C 16.53125 0.9375 12.785156 -0.203125 10.734375 -2.484375 C 8.691406 -4.765625 7.671875 -8.421875 7.671875 -13.453125 L 7.671875 -67.421875 L 1.890625 -67.421875 L 1.890625 -83.125 L 7.671875 -83.125 L 7.671875 -101.421875 L 27.75 -101.421875 L 27.75 -83.125 L 33.65625 -83.125 L 33.65625 -67.421875 L 27.75 -67.421875 L 27.75 -18.890625 C 27.75 -17.398438 27.863281 -16.300781 28.09375 -15.59375 C 28.332031 -14.882812 28.960938 -14.53125 29.984375 -14.53125 C 30.773438 -14.53125 31.523438 -14.566406 32.234375 -14.640625 C 32.941406 -14.722656 33.414062 -14.765625 33.65625 -14.765625 L 33.65625 -0.59375 C 32.46875 -0.28125 30.753906 0.0507812 28.515625 0.40625 C 26.273438 0.757812 24.09375 0.9375 21.96875 0.9375 Z M 21.96875 0.9375 "/></g></g></g><g fill="#ffffff" fill-opacity="1"><g transform="translate(456.078055, 173.058201)"><g><path d="M 21.96875 0.9375 C 16.53125 0.9375 12.785156 -0.203125 10.734375 -2.484375 C 8.691406 -4.765625 7.671875 -8.421875 7.671875 -13.453125 L 7.671875 -67.421875 L 1.890625 -67.421875 L 1.890625 -83.125 L 7.671875 -83.125 L 7.671875 -101.421875 L 27.75 -101.421875 L 27.75 -83.125 L 33.65625 -83.125 L 33.65625 -67.421875 L 27.75 -67.421875 L 27.75 -18.890625 C 27.75 -17.398438 27.863281 -16.300781 28.09375 -15.59375 C 28.332031 -14.882812 28.960938 -14.53125 29.984375 -14.53125 C 30.773438 -14.53125 31.523438 -14.566406 32.234375 -14.640625 C 32.941406 -14.722656 33.414062 -14.765625 33.65625 -14.765625 L 33.65625 -0.59375 C 32.46875 -0.28125 30.753906 0.0507812 28.515625 0.40625 C 26.273438 0.757812 24.09375 0.9375 21.96875 0.9375 Z M 21.96875 0.9375 "/></g></g></g><g fill="#ffffff" fill-opacity="1"><g transform="translate(491.497788, 173.058201)"><g><path d="M 19.84375 0.9375 C 13.144531 0.9375 8.554688 -1.28125 6.078125 -5.71875 C 3.597656 -10.164062 2.359375 -16.523438 2.359375 -24.796875 C 2.359375 -31.566406 3.242188 -36.757812 5.015625 -40.375 C 6.785156 -44 9.242188 -46.65625 12.390625 -48.34375 C 15.546875 -50.039062 20.347656 -51.914062 26.796875 -53.96875 L 32.46875 -55.84375 L 32.46875 -64.703125 C 32.46875 -66.984375 32.015625 -68.734375 31.109375 -69.953125 C 30.203125 -71.179688 29.117188 -71.796875 27.859375 -71.796875 C 26.765625 -71.796875 25.800781 -71.28125 24.96875 -70.25 C 24.144531 -69.226562 23.734375 -67.851562 23.734375 -66.125 L 23.734375 -60.921875 L 3.65625 -60.921875 L 3.65625 -63.765625 C 3.65625 -72.265625 5.644531 -78.320312 9.625 -81.9375 C 13.601562 -85.5625 20.078125 -87.375 29.046875 -87.375 C 36.210938 -87.375 42.035156 -85.503906 46.515625 -81.765625 C 51.003906 -78.023438 53.25 -72.734375 53.25 -65.890625 L 53.25 0 L 32.703125 0 L 32.703125 -10.265625 C 31.679688 -6.722656 30.046875 -3.96875 27.796875 -2 C 25.554688 -0.0390625 22.90625 0.9375 19.84375 0.9375 Z M 27.984375 -15.109375 C 29.554688 -15.109375 30.675781 -15.757812 31.34375 -17.0625 C 32.019531 -18.363281 32.359375 -19.957031 32.359375 -21.84375 L 32.359375 -45.9375 C 29.285156 -44.75 27.019531 -43.25 25.5625 -41.4375 C 24.101562 -39.632812 23.375 -37.117188 23.375 -33.890625 L 23.375 -22.796875 C 23.375 -17.671875 24.910156 -15.109375 27.984375 -15.109375 Z M 27.984375 -15.109375 "/></g></g></g><g fill="#ffffff" fill-opacity="1"><g transform="translate(547.933265, 173.058201)"><g><path d="M 4.015625 -92.21875 L 4.015625 -106.625 L 24.671875 -106.625 L 24.671875 -92.21875 Z M 4.015625 0 L 4.015625 -86.4375 L 24.671875 -86.4375 L 24.671875 0 Z M 4.015625 0 "/></g></g></g><g fill="#ffffff" fill-opacity="1"><g transform="translate(576.032908, 173.058201)"><g><path d="M 4.125 -86.4375 L 24.796875 -86.4375 L 24.796875 -75.453125 C 25.660156 -78.992188 27.15625 -81.863281 29.28125 -84.0625 C 31.40625 -86.269531 34.238281 -87.375 37.78125 -87.375 C 43.601562 -87.375 47.910156 -85.582031 50.703125 -82 C 53.503906 -78.414062 54.90625 -73.320312 54.90625 -66.71875 L 54.90625 0 L 34.59375 0 L 34.59375 -64.59375 C 34.59375 -66.476562 34.21875 -68.085938 33.46875 -69.421875 C 32.726562 -70.765625 31.566406 -71.4375 29.984375 -71.4375 C 27.859375 -71.4375 26.460938 -70.472656 25.796875 -68.546875 C 25.128906 -66.617188 24.796875 -64.039062 24.796875 -60.8125 L 24.796875 0 L 4.125 0 Z M 4.125 -86.4375 "/></g></g></g><g fill="#ffffff" fill-opacity="1"><g transform="translate(634.357455, 173.058201)"><g/></g></g><g fill="#ffffff" fill-opacity="1"><g transform="translate(661.394479, 173.058201)"><g><path d="M 4.484375 -101.421875 L 35.65625 -101.421875 C 40.613281 -101.421875 44.453125 -100.300781 47.171875 -98.0625 C 49.890625 -95.820312 51.71875 -92.671875 52.65625 -88.609375 C 53.601562 -84.554688 54.078125 -79.382812 54.078125 -73.09375 C 54.078125 -67.34375 53.328125 -62.851562 51.828125 -59.625 C 50.335938 -56.394531 47.742188 -54.15625 44.046875 -52.90625 C 47.109375 -52.269531 49.328125 -50.734375 50.703125 -48.296875 C 52.085938 -45.859375 52.78125 -42.550781 52.78125 -38.375 L 52.546875 0 L 32.703125 0 L 32.703125 -39.671875 C 32.703125 -42.503906 32.148438 -44.3125 31.046875 -45.09375 C 29.953125 -45.882812 27.945312 -46.28125 25.03125 -46.28125 L 25.03125 0 L 4.484375 0 Z M 29.984375 -63.875 C 32.828125 -63.875 34.25 -66.945312 34.25 -73.09375 C 34.25 -75.769531 34.128906 -77.773438 33.890625 -79.109375 C 33.648438 -80.453125 33.210938 -81.378906 32.578125 -81.890625 C 31.953125 -82.398438 31.050781 -82.65625 29.875 -82.65625 L 25.15625 -82.65625 L 25.15625 -63.875 Z M 29.984375 -63.875 "/></g></g></g><g fill="#ffffff" fill-opacity="1"><g transform="translate(717.121565, 173.058201)"><g><path d="M 28.34375 0.9375 C 19.445312 0.9375 13.066406 -1.5 9.203125 -6.375 C 5.347656 -11.257812 3.421875 -18.539062 3.421875 -28.21875 L 3.421875 -62.9375 C 3.421875 -70.882812 5.703125 -76.941406 10.265625 -81.109375 C 14.835938 -85.285156 21.21875 -87.375 29.40625 -87.375 C 46.007812 -87.375 54.3125 -79.226562 54.3125 -62.9375 L 54.3125 -56.671875 C 54.3125 -50.378906 54.234375 -45.265625 54.078125 -41.328125 L 24.09375 -41.328125 L 24.09375 -24.5625 C 24.09375 -21.570312 24.40625 -19.226562 25.03125 -17.53125 C 25.664062 -15.84375 27.003906 -15 29.046875 -15 C 30.617188 -15 31.738281 -15.46875 32.40625 -16.40625 C 33.082031 -17.351562 33.476562 -18.4375 33.59375 -19.65625 C 33.707031 -20.875 33.765625 -22.664062 33.765625 -25.03125 L 33.765625 -33.421875 L 54.3125 -33.421875 L 54.3125 -28.453125 C 54.3125 -18.378906 52.363281 -10.960938 48.46875 -6.203125 C 44.570312 -1.441406 37.863281 0.9375 28.34375 0.9375 Z M 33.765625 -51.59375 L 33.765625 -62.703125 C 33.765625 -68.921875 32.234375 -72.03125 29.171875 -72.03125 C 25.703125 -72.03125 23.96875 -68.921875 23.96875 -62.703125 L 23.96875 -51.59375 Z M 33.765625 -51.59375 "/></g></g></g><g fill="#ffffff" fill-opacity="1"><g transform="translate(774.147359, 173.058201)"><g><path d="M 4.125 -86.4375 L 24.796875 -86.4375 L 24.796875 -75.453125 C 25.660156 -78.992188 27.15625 -81.863281 29.28125 -84.0625 C 31.40625 -86.269531 34.238281 -87.375 37.78125 -87.375 C 43.601562 -87.375 47.910156 -85.582031 50.703125 -82 C 53.503906 -78.414062 54.90625 -73.320312 54.90625 -66.71875 L 54.90625 0 L 34.59375 0 L 34.59375 -64.59375 C 34.59375 -66.476562 34.21875 -68.085938 33.46875 -69.421875 C 32.726562 -70.765625 31.566406 -71.4375 29.984375 -71.4375 C 27.859375 -71.4375 26.460938 -70.472656 25.796875 -68.546875 C 25.128906 -66.617188 24.796875 -64.039062 24.796875 -60.8125 L 24.796875 0 L 4.125 0 Z M 4.125 -86.4375 "/></g></g></g><g fill="#ffffff" fill-opacity="1"><g transform="translate(832.471884, 173.058201)"><g><path d="M 28.34375 0.9375 C 19.445312 0.9375 13.066406 -1.5 9.203125 -6.375 C 5.347656 -11.257812 3.421875 -18.539062 3.421875 -28.21875 L 3.421875 -62.9375 C 3.421875 -70.882812 5.703125 -76.941406 10.265625 -81.109375 C 14.835938 -85.285156 21.21875 -87.375 29.40625 -87.375 C 46.007812 -87.375 54.3125 -79.226562 54.3125 -62.9375 L 54.3125 -56.671875 C 54.3125 -50.378906 54.234375 -45.265625 54.078125 -41.328125 L 24.09375 -41.328125 L 24.09375 -24.5625 C 24.09375 -21.570312 24.40625 -19.226562 25.03125 -17.53125 C 25.664062 -15.84375 27.003906 -15 29.046875 -15 C 30.617188 -15 31.738281 -15.46875 32.40625 -16.40625 C 33.082031 -17.351562 33.476562 -18.4375 33.59375 -19.65625 C 33.707031 -20.875 33.765625 -22.664062 33.765625 -25.03125 L 33.765625 -33.421875 L 54.3125 -33.421875 L 54.3125 -28.453125 C 54.3125 -18.378906 52.363281 -10.960938 48.46875 -6.203125 C 44.570312 -1.441406 37.863281 0.9375 28.34375 0.9375 Z M 33.765625 -51.59375 L 33.765625 -62.703125 C 33.765625 -68.921875 32.234375 -72.03125 29.171875 -72.03125 C 25.703125 -72.03125 23.96875 -68.921875 23.96875 -62.703125 L 23.96875 -51.59375 Z M 33.765625 -51.59375 "/></g></g></g><g fill="#ffffff" fill-opacity="1"><g transform="translate(889.497701, 173.058201)"><g><path d="M 13.21875 0 L 2.71875 -86.4375 L 20.421875 -86.4375 L 26.21875 -40.03125 L 31.171875 -86.4375 L 49.234375 -86.4375 L 55.140625 -40.03125 L 59.984375 -86.4375 L 79.46875 -86.4375 L 68.375 0 L 47.703125 0 L 41.5625 -49.125 L 36.125 0 Z M 13.21875 0 "/></g></g></g><g fill="#ffffff" fill-opacity="1"><g transform="translate(971.081246, 173.058201)"><g><path d="M 19.84375 0.9375 C 13.144531 0.9375 8.554688 -1.28125 6.078125 -5.71875 C 3.597656 -10.164062 2.359375 -16.523438 2.359375 -24.796875 C 2.359375 -31.566406 3.242188 -36.757812 5.015625 -40.375 C 6.785156 -44 9.242188 -46.65625 12.390625 -48.34375 C 15.546875 -50.039062 20.347656 -51.914062 26.796875 -53.96875 L 32.46875 -55.84375 L 32.46875 -64.703125 C 32.46875 -66.984375 32.015625 -68.734375 31.109375 -69.953125 C 30.203125 -71.179688 29.117188 -71.796875 27.859375 -71.796875 C 26.765625 -71.796875 25.800781 -71.28125 24.96875 -70.25 C 24.144531 -69.226562 23.734375 -67.851562 23.734375 -66.125 L 23.734375 -60.921875 L 3.65625 -60.921875 L 3.65625 -63.765625 C 3.65625 -72.265625 5.644531 -78.320312 9.625 -81.9375 C 13.601562 -85.5625 20.078125 -87.375 29.046875 -87.375 C 36.210938 -87.375 42.035156 -85.503906 46.515625 -81.765625 C 51.003906 -78.023438 53.25 -72.734375 53.25 -65.890625 L 53.25 0 L 32.703125 0 L 32.703125 -10.265625 C 31.679688 -6.722656 30.046875 -3.96875 27.796875 -2 C 25.554688 -0.0390625 22.90625 0.9375 19.84375 0.9375 Z M 27.984375 -15.109375 C 29.554688 -15.109375 30.675781 -15.757812 31.34375 -17.0625 C 32.019531 -18.363281 32.359375 -19.957031 32.359375 -21.84375 L 32.359375 -45.9375 C 29.285156 -44.75 27.019531 -43.25 25.5625 -41.4375 C 24.101562 -39.632812 23.375 -37.117188 23.375 -33.890625 L 23.375 -22.796875 C 23.375 -17.671875 24.910156 -15.109375 27.984375 -15.109375 Z M 27.984375 -15.109375 "/></g></g></g><g fill="#ffffff" fill-opacity="1"><g transform="translate(1027.516745, 173.058201)"><g><path d="M 37.546875 0.9375 C 31.878906 0.9375 27.828125 -2.441406 25.390625 -9.203125 L 25.390625 0 L 4.125 0 L 4.125 -102.015625 L 25.390625 -102.015625 L 25.390625 -82.296875 C 28.691406 -85.679688 32.546875 -87.375 36.953125 -87.375 C 43.648438 -87.375 48.453125 -85.382812 51.359375 -81.40625 C 54.273438 -77.4375 55.734375 -71.710938 55.734375 -64.234375 L 55.734375 -22.546875 C 55.734375 -15.460938 54.238281 -9.773438 51.25 -5.484375 C 48.257812 -1.203125 43.691406 0.9375 37.546875 0.9375 Z M 30.578125 -15.109375 C 31.992188 -15.109375 33 -15.5625 33.59375 -16.46875 C 34.1875 -17.375 34.539062 -18.515625 34.65625 -19.890625 C 34.769531 -21.273438 34.828125 -23.421875 34.828125 -26.328125 L 34.828125 -62.34375 C 34.828125 -65.414062 34.550781 -67.695312 34 -69.1875 C 33.457031 -70.6875 32.28125 -71.4375 30.46875 -71.4375 C 28.5 -71.4375 27.160156 -70.6875 26.453125 -69.1875 C 25.742188 -67.695312 25.390625 -65.492188 25.390625 -62.578125 L 25.390625 -26.328125 C 25.390625 -22.546875 25.703125 -19.726562 26.328125 -17.875 C 26.960938 -16.03125 28.378906 -15.109375 30.578125 -15.109375 Z M 30.578125 -15.109375 "/></g></g></g><g fill="#ffffff" fill-opacity="1"><g transform="translate(1086.077369, 173.058201)"><g><path d="M 4.125 0 L 4.125 -102.015625 L 25.15625 -102.015625 L 25.15625 0 Z M 4.125 0 "/></g></g></g><g fill="#ffffff" fill-opacity="1"><g transform="translate(1114.767364, 173.058201)"><g><path d="M 28.34375 0.9375 C 19.445312 0.9375 13.066406 -1.5 9.203125 -6.375 C 5.347656 -11.257812 3.421875 -18.539062 3.421875 -28.21875 L 3.421875 -62.9375 C 3.421875 -70.882812 5.703125 -76.941406 10.265625 -81.109375 C 14.835938 -85.285156 21.21875 -87.375 29.40625 -87.375 C 46.007812 -87.375 54.3125 -79.226562 54.3125 -62.9375 L 54.3125 -56.671875 C 54.3125 -50.378906 54.234375 -45.265625 54.078125 -41.328125 L 24.09375 -41.328125 L 24.09375 -24.5625 C 24.09375 -21.570312 24.40625 -19.226562 25.03125 -17.53125 C 25.664062 -15.84375 27.003906 -15 29.046875 -15 C 30.617188 -15 31.738281 -15.46875 32.40625 -16.40625 C 33.082031 -17.351562 33.476562 -18.4375 33.59375 -19.65625 C 33.707031 -20.875 33.765625 -22.664062 33.765625 -25.03125 L 33.765625 -33.421875 L 54.3125 -33.421875 L 54.3125 -28.453125 C 54.3125 -18.378906 52.363281 -10.960938 48.46875 -6.203125 C 44.570312 -1.441406 37.863281 0.9375 28.34375 0.9375 Z M 33.765625 -51.59375 L 33.765625 -62.703125 C 33.765625 -68.921875 32.234375 -72.03125 29.171875 -72.03125 C 25.703125 -72.03125 23.96875 -68.921875 23.96875 -62.703125 L 23.96875 -51.59375 Z M 33.765625 -51.59375 "/></g></g></g><g fill="#ffffff" fill-opacity="1"><g transform="translate(1171.793135, 173.058201)"><g><path d="M 27.859375 0.9375 C 10.785156 0.9375 2.25 -7.71875 2.25 -25.03125 L 2.359375 -31.875 L 23.03125 -31.875 L 23.140625 -21.71875 C 23.140625 -19.675781 23.53125 -18.125 24.3125 -17.0625 C 25.101562 -16 26.40625 -15.46875 28.21875 -15.46875 C 30.976562 -15.46875 32.359375 -17.710938 32.359375 -22.203125 C 32.359375 -25.503906 31.707031 -28.097656 30.40625 -29.984375 C 29.101562 -31.878906 27.035156 -33.890625 24.203125 -36.015625 L 13.21875 -44.515625 C 9.445312 -47.429688 6.734375 -50.441406 5.078125 -53.546875 C 3.421875 -56.660156 2.59375 -61.050781 2.59375 -66.71875 C 2.59375 -71.125 3.753906 -74.878906 6.078125 -77.984375 C 8.398438 -81.097656 11.488281 -83.441406 15.34375 -85.015625 C 19.207031 -86.585938 23.5 -87.375 28.21875 -87.375 C 44.988281 -87.375 53.375 -79.03125 53.375 -62.34375 L 53.375 -60.6875 L 32 -60.6875 L 32 -64 C 32 -66.039062 31.660156 -67.789062 30.984375 -69.25 C 30.316406 -70.707031 29.195312 -71.4375 27.625 -71.4375 C 26.207031 -71.4375 25.125 -71.019531 24.375 -70.1875 C 23.632812 -69.363281 23.265625 -68.242188 23.265625 -66.828125 C 23.265625 -63.679688 24.484375 -61.242188 26.921875 -59.515625 L 39.671875 -50.1875 C 44.234375 -46.800781 47.734375 -43.117188 50.171875 -39.140625 C 52.617188 -35.171875 53.84375 -30.15625 53.84375 -24.09375 C 53.84375 -16.0625 51.554688 -9.878906 46.984375 -5.546875 C 42.421875 -1.222656 36.046875 0.9375 27.859375 0.9375 Z M 27.859375 0.9375 "/></g></g></g><g fill="#ffffff" fill-opacity="1"><g transform="translate(358.139809, 243.723113)"><g><path d="M 25.84375 -3.828125 L 25.828125 0 L 4.4375 0 L 4.4375 -34.71875 L 25.828125 -34.71875 L 25.828125 -30.890625 L 9.140625 -30.890625 L 9.140625 -19.359375 L 22.65625 -19.359375 L 22.65625 -15.671875 L 9.140625 -15.671875 L 9.140625 -3.828125 Z M 25.84375 -3.828125 "/></g></g></g><g fill="#ffffff" fill-opacity="1"><g transform="translate(392.0314, 243.723113)"><g><path d="M 32.5625 -34.71875 L 32.5625 0 L 30.203125 0 C 29.835938 0 29.53125 -0.0625 29.28125 -0.1875 C 29.03125 -0.320312 28.78125 -0.539062 28.53125 -0.84375 L 8.453125 -27.015625 C 8.484375 -26.609375 8.503906 -26.210938 8.515625 -25.828125 C 8.535156 -25.441406 8.546875 -25.078125 8.546875 -24.734375 L 8.546875 0 L 4.4375 0 L 4.4375 -34.71875 L 6.859375 -34.71875 C 7.066406 -34.71875 7.242188 -34.703125 7.390625 -34.671875 C 7.535156 -34.648438 7.664062 -34.609375 7.78125 -34.546875 C 7.894531 -34.492188 8.003906 -34.414062 8.109375 -34.3125 C 8.222656 -34.207031 8.347656 -34.078125 8.484375 -33.921875 L 28.5625 -7.78125 C 28.53125 -8.195312 28.5 -8.601562 28.46875 -9 C 28.445312 -9.394531 28.4375 -9.769531 28.4375 -10.125 L 28.4375 -34.71875 Z M 32.5625 -34.71875 "/></g></g></g><g fill="#ffffff" fill-opacity="1"><g transform="translate(434.934485, 243.723113)"><g><path d="M 25.84375 -3.828125 L 25.828125 0 L 4.4375 0 L 4.4375 -34.71875 L 25.828125 -34.71875 L 25.828125 -30.890625 L 9.140625 -30.890625 L 9.140625 -19.359375 L 22.65625 -19.359375 L 22.65625 -15.671875 L 9.140625 -15.671875 L 9.140625 -3.828125 Z M 25.84375 -3.828125 "/></g></g></g><g fill="#ffffff" fill-opacity="1"><g transform="translate(468.826077, 243.723113)"><g><path d="M 14.046875 -17.90625 C 15.410156 -17.90625 16.613281 -18.066406 17.65625 -18.390625 C 18.695312 -18.722656 19.566406 -19.191406 20.265625 -19.796875 C 20.960938 -20.410156 21.488281 -21.132812 21.84375 -21.96875 C 22.207031 -22.8125 22.390625 -23.742188 22.390625 -24.765625 C 22.390625 -26.828125 21.707031 -28.382812 20.34375 -29.4375 C 18.988281 -30.488281 16.957031 -31.015625 14.25 -31.015625 L 9.109375 -31.015625 L 9.109375 -17.90625 Z M 30.09375 0 L 25.921875 0 C 25.066406 0 24.4375 -0.332031 24.03125 -1 L 15.015625 -13.390625 C 14.742188 -13.785156 14.445312 -14.066406 14.125 -14.234375 C 13.8125 -14.398438 13.328125 -14.484375 12.671875 -14.484375 L 9.109375 -14.484375 L 9.109375 0 L 4.4375 0 L 4.4375 -34.71875 L 14.25 -34.71875 C 16.445312 -34.71875 18.34375 -34.492188 19.9375 -34.046875 C 21.539062 -33.609375 22.863281 -32.96875 23.90625 -32.125 C 24.945312 -31.28125 25.71875 -30.265625 26.21875 -29.078125 C 26.71875 -27.890625 26.96875 -26.5625 26.96875 -25.09375 C 26.96875 -23.863281 26.769531 -22.71875 26.375 -21.65625 C 25.988281 -20.59375 25.425781 -19.632812 24.6875 -18.78125 C 23.957031 -17.9375 23.0625 -17.210938 22 -16.609375 C 20.945312 -16.015625 19.75 -15.566406 18.40625 -15.265625 C 19.007812 -14.921875 19.53125 -14.425781 19.96875 -13.78125 Z M 30.09375 0 "/></g></g></g><g fill="#ffffff" fill-opacity="1"><g transform="translate(504.752446, 243.723113)"><g><path d="M 32.640625 -16.6875 L 32.640625 -3.375 C 30.890625 -2.113281 29.023438 -1.171875 27.046875 -0.546875 C 25.066406 0.078125 22.898438 0.390625 20.546875 0.390625 C 17.753906 0.390625 15.234375 -0.0390625 12.984375 -0.90625 C 10.742188 -1.769531 8.828125 -2.976562 7.234375 -4.53125 C 5.640625 -6.09375 4.414062 -7.960938 3.5625 -10.140625 C 2.707031 -12.328125 2.28125 -14.726562 2.28125 -17.34375 C 2.28125 -19.988281 2.691406 -22.398438 3.515625 -24.578125 C 4.347656 -26.765625 5.53125 -28.632812 7.0625 -30.1875 C 8.601562 -31.75 10.472656 -32.957031 12.671875 -33.8125 C 14.867188 -34.675781 17.320312 -35.109375 20.03125 -35.109375 C 21.40625 -35.109375 22.679688 -35.003906 23.859375 -34.796875 C 25.035156 -34.597656 26.125 -34.304688 27.125 -33.921875 C 28.132812 -33.546875 29.066406 -33.085938 29.921875 -32.546875 C 30.773438 -32.003906 31.570312 -31.394531 32.3125 -30.71875 L 30.984375 -28.59375 C 30.773438 -28.269531 30.503906 -28.0625 30.171875 -27.96875 C 29.835938 -27.882812 29.472656 -27.960938 29.078125 -28.203125 C 28.679688 -28.421875 28.234375 -28.691406 27.734375 -29.015625 C 27.234375 -29.347656 26.625 -29.660156 25.90625 -29.953125 C 25.1875 -30.253906 24.335938 -30.507812 23.359375 -30.71875 C 22.390625 -30.925781 21.234375 -31.03125 19.890625 -31.03125 C 17.929688 -31.03125 16.160156 -30.710938 14.578125 -30.078125 C 12.992188 -29.441406 11.644531 -28.53125 10.53125 -27.34375 C 9.414062 -26.15625 8.5625 -24.71875 7.96875 -23.03125 C 7.375 -21.34375 7.078125 -19.445312 7.078125 -17.34375 C 7.078125 -15.164062 7.382812 -13.21875 8 -11.5 C 8.625 -9.78125 9.515625 -8.316406 10.671875 -7.109375 C 11.828125 -5.910156 13.226562 -4.992188 14.875 -4.359375 C 16.519531 -3.734375 18.367188 -3.421875 20.421875 -3.421875 C 22.035156 -3.421875 23.46875 -3.597656 24.71875 -3.953125 C 25.96875 -4.316406 27.191406 -4.820312 28.390625 -5.46875 L 28.390625 -13.109375 L 22.984375 -13.109375 C 22.679688 -13.109375 22.4375 -13.195312 22.25 -13.375 C 22.0625 -13.550781 21.96875 -13.769531 21.96875 -14.03125 L 21.96875 -16.6875 Z M 32.640625 -16.6875 "/></g></g></g><g fill="#ffffff" fill-opacity="1"><g transform="translate(545.25713, 243.723113)"><g><path d="M 17.46875 -13.828125 L 17.46875 0 L 12.765625 0 L 12.765625 -13.828125 L 0.046875 -34.71875 L 4.171875 -34.71875 C 4.585938 -34.71875 4.914062 -34.613281 5.15625 -34.40625 C 5.40625 -34.207031 5.617188 -33.945312 5.796875 -33.625 L 13.734375 -20.125 C 14.023438 -19.5625 14.289062 -19.035156 14.53125 -18.546875 C 14.78125 -18.054688 14.992188 -17.5625 15.171875 -17.0625 C 15.347656 -17.5625 15.546875 -18.054688 15.765625 -18.546875 C 15.992188 -19.035156 16.242188 -19.5625 16.515625 -20.125 L 24.4375 -33.625 C 24.582031 -33.894531 24.785156 -34.144531 25.046875 -34.375 C 25.304688 -34.601562 25.640625 -34.71875 26.046875 -34.71875 L 30.1875 -34.71875 Z M 17.46875 -13.828125 "/></g></g></g><g fill="#ffffff" fill-opacity="1"><g transform="translate(579.487439, 243.723113)"><g/></g></g><g fill="#ffffff" fill-opacity="1"><g transform="translate(597.802707, 243.723113)"><g><path d="M 9.140625 -30.890625 L 9.140625 -18.75 L 23.40625 -18.75 L 23.40625 -14.921875 L 9.140625 -14.921875 L 9.140625 0 L 4.4375 0 L 4.4375 -34.71875 L 25.828125 -34.71875 L 25.828125 -30.890625 Z M 9.140625 -30.890625 "/></g></g></g><g fill="#ffffff" fill-opacity="1"><g transform="translate(630.797922, 243.723113)"><g><path d="M 36.515625 -17.34375 C 36.515625 -14.75 36.097656 -12.363281 35.265625 -10.1875 C 34.441406 -8.007812 33.28125 -6.140625 31.78125 -4.578125 C 30.28125 -3.015625 28.472656 -1.800781 26.359375 -0.9375 C 24.253906 -0.0703125 21.925781 0.359375 19.375 0.359375 C 16.820312 0.359375 14.492188 -0.0703125 12.390625 -0.9375 C 10.296875 -1.800781 8.5 -3.015625 7 -4.578125 C 5.5 -6.140625 4.335938 -8.007812 3.515625 -10.1875 C 2.691406 -12.363281 2.28125 -14.75 2.28125 -17.34375 C 2.28125 -19.945312 2.691406 -22.332031 3.515625 -24.5 C 4.335938 -26.675781 5.5 -28.550781 7 -30.125 C 8.5 -31.695312 10.296875 -32.921875 12.390625 -33.796875 C 14.492188 -34.671875 16.820312 -35.109375 19.375 -35.109375 C 21.925781 -35.109375 24.253906 -34.671875 26.359375 -33.796875 C 28.472656 -32.921875 30.28125 -31.695312 31.78125 -30.125 C 33.28125 -28.550781 34.441406 -26.675781 35.265625 -24.5 C 36.097656 -22.332031 36.515625 -19.945312 36.515625 -17.34375 Z M 31.6875 -17.34375 C 31.6875 -19.476562 31.394531 -21.390625 30.8125 -23.078125 C 30.226562 -24.773438 29.40625 -26.207031 28.34375 -27.375 C 27.28125 -28.550781 25.988281 -29.453125 24.46875 -30.078125 C 22.945312 -30.710938 21.25 -31.03125 19.375 -31.03125 C 17.519531 -31.03125 15.832031 -30.710938 14.3125 -30.078125 C 12.800781 -29.453125 11.503906 -28.550781 10.421875 -27.375 C 9.347656 -26.207031 8.519531 -24.773438 7.9375 -23.078125 C 7.363281 -21.390625 7.078125 -19.476562 7.078125 -17.34375 C 7.078125 -15.207031 7.363281 -13.296875 7.9375 -11.609375 C 8.519531 -9.921875 9.347656 -8.492188 10.421875 -7.328125 C 11.503906 -6.160156 12.800781 -5.265625 14.3125 -4.640625 C 15.832031 -4.015625 17.519531 -3.703125 19.375 -3.703125 C 21.25 -3.703125 22.945312 -4.015625 24.46875 -4.640625 C 25.988281 -5.265625 27.28125 -6.160156 28.34375 -7.328125 C 29.40625 -8.492188 30.226562 -9.921875 30.8125 -11.609375 C 31.394531 -13.296875 31.6875 -15.207031 31.6875 -17.34375 Z M 31.6875 -17.34375 "/></g></g></g><g fill="#ffffff" fill-opacity="1"><g transform="translate(675.493623, 243.723113)"><g><path d="M 14.046875 -17.90625 C 15.410156 -17.90625 16.613281 -18.066406 17.65625 -18.390625 C 18.695312 -18.722656 19.566406 -19.191406 20.265625 -19.796875 C 20.960938 -20.410156 21.488281 -21.132812 21.84375 -21.96875 C 22.207031 -22.8125 22.390625 -23.742188 22.390625 -24.765625 C 22.390625 -26.828125 21.707031 -28.382812 20.34375 -29.4375 C 18.988281 -30.488281 16.957031 -31.015625 14.25 -31.015625 L 9.109375 -31.015625 L 9.109375 -17.90625 Z M 30.09375 0 L 25.921875 0 C 25.066406 0 24.4375 -0.332031 24.03125 -1 L 15.015625 -13.390625 C 14.742188 -13.785156 14.445312 -14.066406 14.125 -14.234375 C 13.8125 -14.398438 13.328125 -14.484375 12.671875 -14.484375 L 9.109375 -14.484375 L 9.109375 0 L 4.4375 0 L 4.4375 -34.71875 L 14.25 -34.71875 C 16.445312 -34.71875 18.34375 -34.492188 19.9375 -34.046875 C 21.539062 -33.609375 22.863281 -32.96875 23.90625 -32.125 C 24.945312 -31.28125 25.71875 -30.265625 26.21875 -29.078125 C 26.71875 -27.890625 26.96875 -26.5625 26.96875 -25.09375 C 26.96875 -23.863281 26.769531 -22.71875 26.375 -21.65625 C 25.988281 -20.59375 25.425781 -19.632812 24.6875 -18.78125 C 23.957031 -17.9375 23.0625 -17.210938 22 -16.609375 C 20.945312 -16.015625 19.75 -15.566406 18.40625 -15.265625 C 19.007812 -14.921875 19.53125 -14.425781 19.96875 -13.78125 Z M 30.09375 0 "/></g></g></g><g fill="#ffffff" fill-opacity="1"><g transform="translate(711.759212, 243.723113)"><g/></g></g><g fill="#ffffff" fill-opacity="1"><g transform="translate(730.074479, 243.723113)"><g><path d="M 16.625 -3.734375 C 17.957031 -3.734375 19.109375 -3.882812 20.078125 -4.1875 C 21.046875 -4.5 21.84375 -4.929688 22.46875 -5.484375 C 23.09375 -6.046875 23.550781 -6.707031 23.84375 -7.46875 C 24.132812 -8.238281 24.28125 -9.082031 24.28125 -10 C 24.28125 -11.789062 23.640625 -13.207031 22.359375 -14.25 C 21.085938 -15.289062 19.175781 -15.8125 16.625 -15.8125 L 9.109375 -15.8125 L 9.109375 -3.734375 Z M 9.109375 -31.015625 L 9.109375 -19.15625 L 15.3125 -19.15625 C 16.632812 -19.15625 17.785156 -19.300781 18.765625 -19.59375 C 19.742188 -19.882812 20.550781 -20.289062 21.1875 -20.8125 C 21.820312 -21.332031 22.289062 -21.957031 22.59375 -22.6875 C 22.90625 -23.425781 23.0625 -24.226562 23.0625 -25.09375 C 23.0625 -27.144531 22.445312 -28.644531 21.21875 -29.59375 C 19.988281 -30.539062 18.082031 -31.015625 15.5 -31.015625 Z M 15.5 -34.71875 C 17.632812 -34.71875 19.472656 -34.503906 21.015625 -34.078125 C 22.554688 -33.660156 23.820312 -33.0625 24.8125 -32.28125 C 25.8125 -31.507812 26.546875 -30.5625 27.015625 -29.4375 C 27.484375 -28.320312 27.71875 -27.0625 27.71875 -25.65625 C 27.71875 -24.800781 27.582031 -23.976562 27.3125 -23.1875 C 27.050781 -22.40625 26.648438 -21.675781 26.109375 -21 C 25.578125 -20.320312 24.90625 -19.710938 24.09375 -19.171875 C 23.28125 -18.628906 22.320312 -18.191406 21.21875 -17.859375 C 23.769531 -17.367188 25.6875 -16.457031 26.96875 -15.125 C 28.257812 -13.789062 28.90625 -12.046875 28.90625 -9.890625 C 28.90625 -8.421875 28.632812 -7.078125 28.09375 -5.859375 C 27.550781 -4.648438 26.757812 -3.609375 25.71875 -2.734375 C 24.675781 -1.859375 23.394531 -1.179688 21.875 -0.703125 C 20.351562 -0.234375 18.625 0 16.6875 0 L 4.4375 0 L 4.4375 -34.71875 Z M 15.5 -34.71875 "/></g></g></g><g fill="#ffffff" fill-opacity="1"><g transform="translate(767.30903, 243.723113)"><g><path d="M 17.828125 -3.734375 C 19.265625 -3.734375 20.546875 -3.972656 21.671875 -4.453125 C 22.804688 -4.941406 23.765625 -5.617188 24.546875 -6.484375 C 25.335938 -7.359375 25.9375 -8.398438 26.34375 -9.609375 C 26.757812 -10.828125 26.96875 -12.160156 26.96875 -13.609375 L 26.96875 -34.71875 L 31.640625 -34.71875 L 31.640625 -13.609375 C 31.640625 -11.609375 31.316406 -9.75 30.671875 -8.03125 C 30.035156 -6.320312 29.125 -4.84375 27.9375 -3.59375 C 26.757812 -2.34375 25.3125 -1.363281 23.59375 -0.65625 C 21.882812 0.0507812 19.960938 0.40625 17.828125 0.40625 C 15.703125 0.40625 13.78125 0.0507812 12.0625 -0.65625 C 10.351562 -1.363281 8.898438 -2.34375 7.703125 -3.59375 C 6.503906 -4.84375 5.585938 -6.320312 4.953125 -8.03125 C 4.316406 -9.75 4 -11.609375 4 -13.609375 L 4 -34.71875 L 8.671875 -34.71875 L 8.671875 -13.640625 C 8.671875 -12.179688 8.875 -10.847656 9.28125 -9.640625 C 9.695312 -8.429688 10.296875 -7.390625 11.078125 -6.515625 C 11.867188 -5.640625 12.832031 -4.957031 13.96875 -4.46875 C 15.101562 -3.976562 16.390625 -3.734375 17.828125 -3.734375 Z M 17.828125 -3.734375 "/></g></g></g><g fill="#ffffff" fill-opacity="1"><g transform="translate(808.855558, 243.723113)"><g><path d="M 22.1875 -29.296875 C 22.039062 -29.046875 21.882812 -28.859375 21.71875 -28.734375 C 21.550781 -28.617188 21.34375 -28.5625 21.09375 -28.5625 C 20.820312 -28.5625 20.5 -28.695312 20.125 -28.96875 C 19.757812 -29.25 19.296875 -29.550781 18.734375 -29.875 C 18.179688 -30.207031 17.507812 -30.507812 16.71875 -30.78125 C 15.9375 -31.0625 14.988281 -31.203125 13.875 -31.203125 C 12.832031 -31.203125 11.910156 -31.0625 11.109375 -30.78125 C 10.304688 -30.5 9.632812 -30.113281 9.09375 -29.625 C 8.550781 -29.144531 8.144531 -28.578125 7.875 -27.921875 C 7.601562 -27.265625 7.46875 -26.554688 7.46875 -25.796875 C 7.46875 -24.828125 7.703125 -24.023438 8.171875 -23.390625 C 8.648438 -22.753906 9.28125 -22.207031 10.0625 -21.75 C 10.84375 -21.300781 11.726562 -20.910156 12.71875 -20.578125 C 13.71875 -20.242188 14.738281 -19.898438 15.78125 -19.546875 C 16.820312 -19.191406 17.835938 -18.789062 18.828125 -18.34375 C 19.828125 -17.90625 20.71875 -17.347656 21.5 -16.671875 C 22.28125 -15.992188 22.910156 -15.160156 23.390625 -14.171875 C 23.867188 -13.179688 24.109375 -11.96875 24.109375 -10.53125 C 24.109375 -9.019531 23.847656 -7.597656 23.328125 -6.265625 C 22.816406 -4.929688 22.0625 -3.769531 21.0625 -2.78125 C 20.070312 -1.800781 18.851562 -1.023438 17.40625 -0.453125 C 15.957031 0.109375 14.316406 0.390625 12.484375 0.390625 C 10.210938 0.390625 8.15625 -0.015625 6.3125 -0.828125 C 4.476562 -1.648438 2.90625 -2.753906 1.59375 -4.140625 L 2.953125 -6.375 C 3.085938 -6.550781 3.242188 -6.695312 3.421875 -6.8125 C 3.609375 -6.9375 3.816406 -7 4.046875 -7 C 4.253906 -7 4.488281 -6.914062 4.75 -6.75 C 5.019531 -6.582031 5.320312 -6.367188 5.65625 -6.109375 C 6 -5.847656 6.390625 -5.5625 6.828125 -5.25 C 7.265625 -4.945312 7.757812 -4.664062 8.3125 -4.40625 C 8.875 -4.144531 9.507812 -3.929688 10.21875 -3.765625 C 10.9375 -3.597656 11.738281 -3.515625 12.625 -3.515625 C 13.738281 -3.515625 14.726562 -3.664062 15.59375 -3.96875 C 16.46875 -4.28125 17.207031 -4.710938 17.8125 -5.265625 C 18.425781 -5.828125 18.894531 -6.492188 19.21875 -7.265625 C 19.539062 -8.046875 19.703125 -8.910156 19.703125 -9.859375 C 19.703125 -10.910156 19.460938 -11.769531 18.984375 -12.4375 C 18.503906 -13.113281 17.875 -13.675781 17.09375 -14.125 C 16.320312 -14.570312 15.4375 -14.953125 14.4375 -15.265625 C 13.4375 -15.585938 12.421875 -15.910156 11.390625 -16.234375 C 10.359375 -16.566406 9.335938 -16.953125 8.328125 -17.390625 C 7.328125 -17.828125 6.4375 -18.390625 5.65625 -19.078125 C 4.882812 -19.773438 4.257812 -20.644531 3.78125 -21.6875 C 3.3125 -22.726562 3.078125 -24.019531 3.078125 -25.5625 C 3.078125 -26.789062 3.3125 -27.976562 3.78125 -29.125 C 4.257812 -30.269531 4.957031 -31.285156 5.875 -32.171875 C 6.789062 -33.054688 7.910156 -33.765625 9.234375 -34.296875 C 10.566406 -34.835938 12.097656 -35.109375 13.828125 -35.109375 C 15.765625 -35.109375 17.53125 -34.800781 19.125 -34.1875 C 20.71875 -33.570312 22.117188 -32.679688 23.328125 -31.515625 Z M 22.1875 -29.296875 "/></g></g></g><g fill="#ffffff" fill-opacity="1"><g transform="translate(841.051432, 243.723113)"><g><path d="M 9.140625 0 L 4.4375 0 L 4.4375 -34.71875 L 9.140625 -34.71875 Z M 9.140625 0 "/></g></g></g><g fill="#ffffff" fill-opacity="1"><g transform="translate(860.529436, 243.723113)"><g><path d="M 32.5625 -34.71875 L 32.5625 0 L 30.203125 0 C 29.835938 0 29.53125 -0.0625 29.28125 -0.1875 C 29.03125 -0.320312 28.78125 -0.539062 28.53125 -0.84375 L 8.453125 -27.015625 C 8.484375 -26.609375 8.503906 -26.210938 8.515625 -25.828125 C 8.535156 -25.441406 8.546875 -25.078125 8.546875 -24.734375 L 8.546875 0 L 4.4375 0 L 4.4375 -34.71875 L 6.859375 -34.71875 C 7.066406 -34.71875 7.242188 -34.703125 7.390625 -34.671875 C 7.535156 -34.648438 7.664062 -34.609375 7.78125 -34.546875 C 7.894531 -34.492188 8.003906 -34.414062 8.109375 -34.3125 C 8.222656 -34.207031 8.347656 -34.078125 8.484375 -33.921875 L 28.5625 -7.78125 C 28.53125 -8.195312 28.5 -8.601562 28.46875 -9 C 28.445312 -9.394531 28.4375 -9.769531 28.4375 -10.125 L 28.4375 -34.71875 Z M 32.5625 -34.71875 "/></g></g></g><g fill="#ffffff" fill-opacity="1"><g transform="translate(903.432521, 243.723113)"><g><path d="M 25.84375 -3.828125 L 25.828125 0 L 4.4375 0 L 4.4375 -34.71875 L 25.828125 -34.71875 L 25.828125 -30.890625 L 9.140625 -30.890625 L 9.140625 -19.359375 L 22.65625 -19.359375 L 22.65625 -15.671875 L 9.140625 -15.671875 L 9.140625 -3.828125 Z M 25.84375 -3.828125 "/></g></g></g><g fill="#ffffff" fill-opacity="1"><g transform="translate(937.324147, 243.723113)"><g><path d="M 22.1875 -29.296875 C 22.039062 -29.046875 21.882812 -28.859375 21.71875 -28.734375 C 21.550781 -28.617188 21.34375 -28.5625 21.09375 -28.5625 C 20.820312 -28.5625 20.5 -28.695312 20.125 -28.96875 C 19.757812 -29.25 19.296875 -29.550781 18.734375 -29.875 C 18.179688 -30.207031 17.507812 -30.507812 16.71875 -30.78125 C 15.9375 -31.0625 14.988281 -31.203125 13.875 -31.203125 C 12.832031 -31.203125 11.910156 -31.0625 11.109375 -30.78125 C 10.304688 -30.5 9.632812 -30.113281 9.09375 -29.625 C 8.550781 -29.144531 8.144531 -28.578125 7.875 -27.921875 C 7.601562 -27.265625 7.46875 -26.554688 7.46875 -25.796875 C 7.46875 -24.828125 7.703125 -24.023438 8.171875 -23.390625 C 8.648438 -22.753906 9.28125 -22.207031 10.0625 -21.75 C 10.84375 -21.300781 11.726562 -20.910156 12.71875 -20.578125 C 13.71875 -20.242188 14.738281 -19.898438 15.78125 -19.546875 C 16.820312 -19.191406 17.835938 -18.789062 18.828125 -18.34375 C 19.828125 -17.90625 20.71875 -17.347656 21.5 -16.671875 C 22.28125 -15.992188 22.910156 -15.160156 23.390625 -14.171875 C 23.867188 -13.179688 24.109375 -11.96875 24.109375 -10.53125 C 24.109375 -9.019531 23.847656 -7.597656 23.328125 -6.265625 C 22.816406 -4.929688 22.0625 -3.769531 21.0625 -2.78125 C 20.070312 -1.800781 18.851562 -1.023438 17.40625 -0.453125 C 15.957031 0.109375 14.316406 0.390625 12.484375 0.390625 C 10.210938 0.390625 8.15625 -0.015625 6.3125 -0.828125 C 4.476562 -1.648438 2.90625 -2.753906 1.59375 -4.140625 L 2.953125 -6.375 C 3.085938 -6.550781 3.242188 -6.695312 3.421875 -6.8125 C 3.609375 -6.9375 3.816406 -7 4.046875 -7 C 4.253906 -7 4.488281 -6.914062 4.75 -6.75 C 5.019531 -6.582031 5.320312 -6.367188 5.65625 -6.109375 C 6 -5.847656 6.390625 -5.5625 6.828125 -5.25 C 7.265625 -4.945312 7.757812 -4.664062 8.3125 -4.40625 C 8.875 -4.144531 9.507812 -3.929688 10.21875 -3.765625 C 10.9375 -3.597656 11.738281 -3.515625 12.625 -3.515625 C 13.738281 -3.515625 14.726562 -3.664062 15.59375 -3.96875 C 16.46875 -4.28125 17.207031 -4.710938 17.8125 -5.265625 C 18.425781 -5.828125 18.894531 -6.492188 19.21875 -7.265625 C 19.539062 -8.046875 19.703125 -8.910156 19.703125 -9.859375 C 19.703125 -10.910156 19.460938 -11.769531 18.984375 -12.4375 C 18.503906 -13.113281 17.875 -13.675781 17.09375 -14.125 C 16.320312 -14.570312 15.4375 -14.953125 14.4375 -15.265625 C 13.4375 -15.585938 12.421875 -15.910156 11.390625 -16.234375 C 10.359375 -16.566406 9.335938 -16.953125 8.328125 -17.390625 C 7.328125 -17.828125 6.4375 -18.390625 5.65625 -19.078125 C 4.882812 -19.773438 4.257812 -20.644531 3.78125 -21.6875 C 3.3125 -22.726562 3.078125 -24.019531 3.078125 -25.5625 C 3.078125 -26.789062 3.3125 -27.976562 3.78125 -29.125 C 4.257812 -30.269531 4.957031 -31.285156 5.875 -32.171875 C 6.789062 -33.054688 7.910156 -33.765625 9.234375 -34.296875 C 10.566406 -34.835938 12.097656 -35.109375 13.828125 -35.109375 C 15.765625 -35.109375 17.53125 -34.800781 19.125 -34.1875 C 20.71875 -33.570312 22.117188 -32.679688 23.328125 -31.515625 Z M 22.1875 -29.296875 "/></g></g></g><g fill="#ffffff" fill-opacity="1"><g transform="translate(969.520021, 243.723113)"><g><path d="M 22.1875 -29.296875 C 22.039062 -29.046875 21.882812 -28.859375 21.71875 -28.734375 C 21.550781 -28.617188 21.34375 -28.5625 21.09375 -28.5625 C 20.820312 -28.5625 20.5 -28.695312 20.125 -28.96875 C 19.757812 -29.25 19.296875 -29.550781 18.734375 -29.875 C 18.179688 -30.207031 17.507812 -30.507812 16.71875 -30.78125 C 15.9375 -31.0625 14.988281 -31.203125 13.875 -31.203125 C 12.832031 -31.203125 11.910156 -31.0625 11.109375 -30.78125 C 10.304688 -30.5 9.632812 -30.113281 9.09375 -29.625 C 8.550781 -29.144531 8.144531 -28.578125 7.875 -27.921875 C 7.601562 -27.265625 7.46875 -26.554688 7.46875 -25.796875 C 7.46875 -24.828125 7.703125 -24.023438 8.171875 -23.390625 C 8.648438 -22.753906 9.28125 -22.207031 10.0625 -21.75 C 10.84375 -21.300781 11.726562 -20.910156 12.71875 -20.578125 C 13.71875 -20.242188 14.738281 -19.898438 15.78125 -19.546875 C 16.820312 -19.191406 17.835938 -18.789062 18.828125 -18.34375 C 19.828125 -17.90625 20.71875 -17.347656 21.5 -16.671875 C 22.28125 -15.992188 22.910156 -15.160156 23.390625 -14.171875 C 23.867188 -13.179688 24.109375 -11.96875 24.109375 -10.53125 C 24.109375 -9.019531 23.847656 -7.597656 23.328125 -6.265625 C 22.816406 -4.929688 22.0625 -3.769531 21.0625 -2.78125 C 20.070312 -1.800781 18.851562 -1.023438 17.40625 -0.453125 C 15.957031 0.109375 14.316406 0.390625 12.484375 0.390625 C 10.210938 0.390625 8.15625 -0.015625 6.3125 -0.828125 C 4.476562 -1.648438 2.90625 -2.753906 1.59375 -4.140625 L 2.953125 -6.375 C 3.085938 -6.550781 3.242188 -6.695312 3.421875 -6.8125 C 3.609375 -6.9375 3.816406 -7 4.046875 -7 C 4.253906 -7 4.488281 -6.914062 4.75 -6.75 C 5.019531 -6.582031 5.320312 -6.367188 5.65625 -6.109375 C 6 -5.847656 6.390625 -5.5625 6.828125 -5.25 C 7.265625 -4.945312 7.757812 -4.664062 8.3125 -4.40625 C 8.875 -4.144531 9.507812 -3.929688 10.21875 -3.765625 C 10.9375 -3.597656 11.738281 -3.515625 12.625 -3.515625 C 13.738281 -3.515625 14.726562 -3.664062 15.59375 -3.96875 C 16.46875 -4.28125 17.207031 -4.710938 17.8125 -5.265625 C 18.425781 -5.828125 18.894531 -6.492188 19.21875 -7.265625 C 19.539062 -8.046875 19.703125 -8.910156 19.703125 -9.859375 C 19.703125 -10.910156 19.460938 -11.769531 18.984375 -12.4375 C 18.503906 -13.113281 17.875 -13.675781 17.09375 -14.125 C 16.320312 -14.570312 15.4375 -14.953125 14.4375 -15.265625 C 13.4375 -15.585938 12.421875 -15.910156 11.390625 -16.234375 C 10.359375 -16.566406 9.335938 -16.953125 8.328125 -17.390625 C 7.328125 -17.828125 6.4375 -18.390625 5.65625 -19.078125 C 4.882812 -19.773438 4.257812 -20.644531 3.78125 -21.6875 C 3.3125 -22.726562 3.078125 -24.019531 3.078125 -25.5625 C 3.078125 -26.789062 3.3125 -27.976562 3.78125 -29.125 C 4.257812 -30.269531 4.957031 -31.285156 5.875 -32.171875 C 6.789062 -33.054688 7.910156 -33.765625 9.234375 -34.296875 C 10.566406 -34.835938 12.097656 -35.109375 13.828125 -35.109375 C 15.765625 -35.109375 17.53125 -34.800781 19.125 -34.1875 C 20.71875 -33.570312 22.117188 -32.679688 23.328125 -31.515625 Z M 22.1875 -29.296875 "/></g></g></g></svg>